<svg width="52" height="52" viewBox="0 0 52 52" fill="none" xmlns="http://www.w3.org/2000/svg">
<circle cx="26" cy="26" r="26" fill="#7A3145" fill-opacity="0.3"/>
<circle cx="26" cy="26" r="21" fill="#7A3145"/>
<path d="M20.88 34C21.02 29.66 22.72 28.78 25.78 27.04C27.52 26.02 28.6 25.44 28.6 23.86C28.6 22.6 27.72 21.78 26.34 21.78C24.62 21.78 23.8 23.06 23.9 24.96H21.18V24.46C21.18 21.54 23.2 19.6 26.34 19.6C29.38 19.6 31.36 21.34 31.36 23.92C31.36 26.1 30.08 27.3 27.66 28.62C25.2 29.98 23.88 30.8 23.82 31.68H31.46V34H20.88Z" fill="#FBFBFB"/>
</svg>
