<svg width="52" height="52" viewBox="0 0 52 52" fill="none" xmlns="http://www.w3.org/2000/svg">
<circle cx="26" cy="26" r="26" fill="#7A3145" fill-opacity="0.3"/>
<circle cx="26" cy="26" r="21" fill="#7A3145"/>
<path d="M26.16 34.2C22.58 34.2 20.58 32.2 20.58 29.18H23.44C23.44 31.16 24.52 32.02 26.18 32.02C27.78 32.02 28.64 31.2 28.68 29.96C28.68 28.4 27.58 27.74 25.84 27.82L24.62 27.88V25.54L25.84 25.58C27.5 25.68 28.32 24.96 28.32 23.7C28.32 22.48 27.46 21.78 26.1 21.78C24.42 21.78 23.66 22.76 23.66 24.22H20.8C20.8 21.32 22.9 19.6 26.06 19.6C29.22 19.6 31.08 21.22 31.08 23.6C31.08 25.12 30.22 26.24 28.96 26.68V26.72C30.4 27.04 31.54 28.4 31.54 29.96C31.54 32.62 29.4 34.2 26.16 34.2Z" fill="#FBFBFB"/>
</svg>
